# xmcd
#
# Track frame offsets: 
#        151
#        22340
#        38193
#        56070
#        71382
#        84358
#        96165
#        109047
#        119400
#        132175
#        147659
#        197786
#        211930
#        225183
#        239985
#
# Disc length: 4409 seconds
#
# Revision: 21
# Processed by: cddbd v1.5.2PL0 Copyright (c) Steve Scherf et al.
# Submitted via: ExactAudioCopy v0.90b4
#
DISCID=dc11370f
DTITLE=Canned Heat - The Very Best Of Canned Heat
DYEAR=2000
DGENRE=Blues
TTITLE0=On The Road Again
TTITLE1=Amphetamine Annie
TTITLE2=My Crime
TTITLE3=Time Was
TTITLE4=Going Up The Country
TTITLE5=Sugar Bee
TTITLE6=Whiskey Headed Woman
TTITLE7=Bullfrog Blues
TTITLE8=Let's Work Together
TTITLE9=World In A Jug
TTITLE10=Fried Hockey Boogie
TTITLE11=Rollin' and Tumblin'
TTITLE12=I'm Her Man
TTITLE13=Dust My Broom
TTITLE14=Parthenogenesis
EXTD=EMI Records YEAR: 2000
EXTT0=
EXTT1=
EXTT2=
EXTT3=
EXTT4=
EXTT5=
EXTT6=
EXTT7=
EXTT8=
EXTT9=
EXTT10=
EXTT11=
EXTT12=
EXTT13=
EXTT14=
PLAYORDER=
